<mxfile host="Electron" agent="Mozilla/5.0 (X11; Linux x86_64) AppleWebKit/537.36 (KHTML, like Gecko) draw.io/28.0.4 Chrome/138.0.7204.97 Electron/37.2.1 Safari/537.36" version="28.0.4">
  <diagram id="R2lEEEUBdFMjLlhIrx00" name="Page-1">
    <mxGraphModel dx="1111" dy="552" grid="1" gridSize="10" guides="1" tooltips="1" connect="1" arrows="1" fold="1" page="1" pageScale="1" pageWidth="850" pageHeight="1100" math="0" shadow="0" extFonts="Permanent Marker^https://fonts.googleapis.com/css?family=Permanent+Marker">
      <root>
        <mxCell id="0" />
        <mxCell id="1" parent="0" />
        <mxCell id="kiKx801N-FX4D6WepU08-1" value="&lt;font style=&quot;font-size: 24px;&quot;&gt;Eureka Database UML Entity Relationship Diagram&lt;/font&gt;" style="text;html=1;align=center;verticalAlign=middle;whiteSpace=wrap;rounded=0;" parent="1" vertex="1">
          <mxGeometry x="148" y="10" width="555" height="30" as="geometry" />
        </mxCell>
        <mxCell id="kiKx801N-FX4D6WepU08-3" value="Item" style="shape=table;startSize=30;container=1;collapsible=1;childLayout=tableLayout;fixedRows=1;rowLines=0;fontStyle=1;align=center;resizeLast=1;html=1;" parent="1" vertex="1">
          <mxGeometry x="192" y="70" width="467" height="240" as="geometry" />
        </mxCell>
        <mxCell id="kiKx801N-FX4D6WepU08-4" value="" style="shape=tableRow;horizontal=0;startSize=0;swimlaneHead=0;swimlaneBody=0;fillColor=none;collapsible=0;dropTarget=0;points=[[0,0.5],[1,0.5]];portConstraint=eastwest;top=0;left=0;right=0;bottom=1;" parent="kiKx801N-FX4D6WepU08-3" vertex="1">
          <mxGeometry y="30" width="467" height="30" as="geometry" />
        </mxCell>
        <mxCell id="kiKx801N-FX4D6WepU08-5" value="PK" style="shape=partialRectangle;connectable=0;fillColor=none;top=0;left=0;bottom=0;right=0;fontStyle=1;overflow=hidden;whiteSpace=wrap;html=1;" parent="kiKx801N-FX4D6WepU08-4" vertex="1">
          <mxGeometry width="30" height="30" as="geometry">
            <mxRectangle width="30" height="30" as="alternateBounds" />
          </mxGeometry>
        </mxCell>
        <mxCell id="kiKx801N-FX4D6WepU08-6" value="INTEGER PRIMARY KEY GENERATED ALWAYS AS IDENTITY" style="shape=partialRectangle;connectable=0;fillColor=none;top=0;left=0;bottom=0;right=0;align=left;spacingLeft=6;fontStyle=5;overflow=hidden;whiteSpace=wrap;html=1;" parent="kiKx801N-FX4D6WepU08-4" vertex="1">
          <mxGeometry x="30" width="437" height="30" as="geometry">
            <mxRectangle width="437" height="30" as="alternateBounds" />
          </mxGeometry>
        </mxCell>
        <mxCell id="kiKx801N-FX4D6WepU08-7" value="" style="shape=tableRow;horizontal=0;startSize=0;swimlaneHead=0;swimlaneBody=0;fillColor=none;collapsible=0;dropTarget=0;points=[[0,0.5],[1,0.5]];portConstraint=eastwest;top=0;left=0;right=0;bottom=0;" parent="kiKx801N-FX4D6WepU08-3" vertex="1">
          <mxGeometry y="60" width="467" height="30" as="geometry" />
        </mxCell>
        <mxCell id="kiKx801N-FX4D6WepU08-8" value="" style="shape=partialRectangle;connectable=0;fillColor=none;top=0;left=0;bottom=0;right=0;editable=1;overflow=hidden;whiteSpace=wrap;html=1;" parent="kiKx801N-FX4D6WepU08-7" vertex="1">
          <mxGeometry width="30" height="30" as="geometry">
            <mxRectangle width="30" height="30" as="alternateBounds" />
          </mxGeometry>
        </mxCell>
        <mxCell id="kiKx801N-FX4D6WepU08-9" value="name VARCHAR(255) NOT NULL" style="shape=partialRectangle;connectable=0;fillColor=none;top=0;left=0;bottom=0;right=0;align=left;spacingLeft=6;overflow=hidden;whiteSpace=wrap;html=1;" parent="kiKx801N-FX4D6WepU08-7" vertex="1">
          <mxGeometry x="30" width="437" height="30" as="geometry">
            <mxRectangle width="437" height="30" as="alternateBounds" />
          </mxGeometry>
        </mxCell>
        <mxCell id="kiKx801N-FX4D6WepU08-10" value="" style="shape=tableRow;horizontal=0;startSize=0;swimlaneHead=0;swimlaneBody=0;fillColor=none;collapsible=0;dropTarget=0;points=[[0,0.5],[1,0.5]];portConstraint=eastwest;top=0;left=0;right=0;bottom=0;" parent="kiKx801N-FX4D6WepU08-3" vertex="1">
          <mxGeometry y="90" width="467" height="30" as="geometry" />
        </mxCell>
        <mxCell id="kiKx801N-FX4D6WepU08-11" value="" style="shape=partialRectangle;connectable=0;fillColor=none;top=0;left=0;bottom=0;right=0;editable=1;overflow=hidden;whiteSpace=wrap;html=1;" parent="kiKx801N-FX4D6WepU08-10" vertex="1">
          <mxGeometry width="30" height="30" as="geometry">
            <mxRectangle width="30" height="30" as="alternateBounds" />
          </mxGeometry>
        </mxCell>
        <mxCell id="kiKx801N-FX4D6WepU08-12" value="description VARCHAR(255) NOT NULL" style="shape=partialRectangle;connectable=0;fillColor=none;top=0;left=0;bottom=0;right=0;align=left;spacingLeft=6;overflow=hidden;whiteSpace=wrap;html=1;" parent="kiKx801N-FX4D6WepU08-10" vertex="1">
          <mxGeometry x="30" width="437" height="30" as="geometry">
            <mxRectangle width="437" height="30" as="alternateBounds" />
          </mxGeometry>
        </mxCell>
        <mxCell id="kiKx801N-FX4D6WepU08-13" value="" style="shape=tableRow;horizontal=0;startSize=0;swimlaneHead=0;swimlaneBody=0;fillColor=none;collapsible=0;dropTarget=0;points=[[0,0.5],[1,0.5]];portConstraint=eastwest;top=0;left=0;right=0;bottom=0;" parent="kiKx801N-FX4D6WepU08-3" vertex="1">
          <mxGeometry y="120" width="467" height="30" as="geometry" />
        </mxCell>
        <mxCell id="kiKx801N-FX4D6WepU08-14" value="" style="shape=partialRectangle;connectable=0;fillColor=none;top=0;left=0;bottom=0;right=0;editable=1;overflow=hidden;whiteSpace=wrap;html=1;" parent="kiKx801N-FX4D6WepU08-13" vertex="1">
          <mxGeometry width="30" height="30" as="geometry">
            <mxRectangle width="30" height="30" as="alternateBounds" />
          </mxGeometry>
        </mxCell>
        <mxCell id="kiKx801N-FX4D6WepU08-15" value="is_lost BOOLEAN NOT NULL" style="shape=partialRectangle;connectable=0;fillColor=none;top=0;left=0;bottom=0;right=0;align=left;spacingLeft=6;overflow=hidden;whiteSpace=wrap;html=1;" parent="kiKx801N-FX4D6WepU08-13" vertex="1">
          <mxGeometry x="30" width="437" height="30" as="geometry">
            <mxRectangle width="437" height="30" as="alternateBounds" />
          </mxGeometry>
        </mxCell>
        <mxCell id="kiKx801N-FX4D6WepU08-17" value="" style="shape=tableRow;horizontal=0;startSize=0;swimlaneHead=0;swimlaneBody=0;fillColor=none;collapsible=0;dropTarget=0;points=[[0,0.5],[1,0.5]];portConstraint=eastwest;top=0;left=0;right=0;bottom=0;" parent="kiKx801N-FX4D6WepU08-3" vertex="1">
          <mxGeometry y="150" width="467" height="30" as="geometry" />
        </mxCell>
        <mxCell id="kiKx801N-FX4D6WepU08-18" value="" style="shape=partialRectangle;connectable=0;fillColor=none;top=0;left=0;bottom=0;right=0;editable=1;overflow=hidden;" parent="kiKx801N-FX4D6WepU08-17" vertex="1">
          <mxGeometry width="30" height="30" as="geometry">
            <mxRectangle width="30" height="30" as="alternateBounds" />
          </mxGeometry>
        </mxCell>
        <mxCell id="kiKx801N-FX4D6WepU08-19" value="email_of_person_who_posted VARCHAR(255) NOT NULL" style="shape=partialRectangle;connectable=0;fillColor=none;top=0;left=0;bottom=0;right=0;align=left;spacingLeft=6;overflow=hidden;" parent="kiKx801N-FX4D6WepU08-17" vertex="1">
          <mxGeometry x="30" width="437" height="30" as="geometry">
            <mxRectangle width="437" height="30" as="alternateBounds" />
          </mxGeometry>
        </mxCell>
        <mxCell id="kiKx801N-FX4D6WepU08-21" value="" style="shape=tableRow;horizontal=0;startSize=0;swimlaneHead=0;swimlaneBody=0;fillColor=none;collapsible=0;dropTarget=0;points=[[0,0.5],[1,0.5]];portConstraint=eastwest;top=0;left=0;right=0;bottom=0;" parent="kiKx801N-FX4D6WepU08-3" vertex="1">
          <mxGeometry y="180" width="467" height="30" as="geometry" />
        </mxCell>
        <mxCell id="kiKx801N-FX4D6WepU08-22" value="" style="shape=partialRectangle;connectable=0;fillColor=none;top=0;left=0;bottom=0;right=0;editable=1;overflow=hidden;" parent="kiKx801N-FX4D6WepU08-21" vertex="1">
          <mxGeometry width="30" height="30" as="geometry">
            <mxRectangle width="30" height="30" as="alternateBounds" />
          </mxGeometry>
        </mxCell>
        <mxCell id="kiKx801N-FX4D6WepU08-23" value="location POINT NOT NULL" style="shape=partialRectangle;connectable=0;fillColor=none;top=0;left=0;bottom=0;right=0;align=left;spacingLeft=6;overflow=hidden;" parent="kiKx801N-FX4D6WepU08-21" vertex="1">
          <mxGeometry x="30" width="437" height="30" as="geometry">
            <mxRectangle width="437" height="30" as="alternateBounds" />
          </mxGeometry>
        </mxCell>
        <mxCell id="kiKx801N-FX4D6WepU08-25" value="" style="shape=tableRow;horizontal=0;startSize=0;swimlaneHead=0;swimlaneBody=0;fillColor=none;collapsible=0;dropTarget=0;points=[[0,0.5],[1,0.5]];portConstraint=eastwest;top=0;left=0;right=0;bottom=0;" parent="kiKx801N-FX4D6WepU08-3" vertex="1">
          <mxGeometry y="210" width="467" height="30" as="geometry" />
        </mxCell>
        <mxCell id="kiKx801N-FX4D6WepU08-26" value="" style="shape=partialRectangle;connectable=0;fillColor=none;top=0;left=0;bottom=0;right=0;editable=1;overflow=hidden;" parent="kiKx801N-FX4D6WepU08-25" vertex="1">
          <mxGeometry width="30" height="30" as="geometry">
            <mxRectangle width="30" height="30" as="alternateBounds" />
          </mxGeometry>
        </mxCell>
        <mxCell id="kiKx801N-FX4D6WepU08-27" value="password VARCHAR(255) NOT NULL" style="shape=partialRectangle;connectable=0;fillColor=none;top=0;left=0;bottom=0;right=0;align=left;spacingLeft=6;overflow=hidden;" parent="kiKx801N-FX4D6WepU08-25" vertex="1">
          <mxGeometry x="30" width="437" height="30" as="geometry">
            <mxRectangle width="437" height="30" as="alternateBounds" />
          </mxGeometry>
        </mxCell>
      </root>
    </mxGraphModel>
  </diagram>
</mxfile>
